<svg width="200" height="200" viewBox="0 0 200 200" fill="none" xmlns="http://www.w3.org/2000/svg">
<path d="M81.196 12.0363L21.0889 22.8946C13.0996 24.3378 7.79304 31.9844 9.23629 39.9737L25.3086 128.944C26.7519 136.933 34.3985 142.239 42.3877 140.796L102.495 129.938C110.484 128.495 115.791 120.848 114.347 112.859L98.2751 23.8889C96.8319 15.8996 89.1853 10.593 81.196 12.0363Z" fill="#51C2FF"/>
<path d="M133.925 44.4148V134.825C133.925 142.945 127.345 149.525 119.225 149.525H58.1453C52.0053 149.525 46.7453 145.765 44.5453 140.415C43.8353 138.695 43.4453 136.805 43.4453 134.825V44.4148C43.4453 36.3048 50.0253 29.7148 58.1453 29.7148H119.225C127.345 29.7148 133.925 36.3048 133.925 44.4148Z" fill="#CCEEFE"/>
<g filter="url(#filter0_f_878_1151)" style="mix-blend-mode:multiply">
<path d="M102.485 129.945L44.5453 140.415C43.8353 138.695 43.4453 136.805 43.4453 134.825V44.4148C43.4453 36.3048 50.0253 29.7148 58.1453 29.7148H99.3253L114.335 112.865C115.785 120.855 110.475 128.505 102.485 129.945Z" fill="#A9DFF7"/>
</g>
<path d="M105.876 44.1846H71.4856C69.5471 44.1846 67.9756 45.756 67.9756 47.6946V47.7046C67.9756 49.6431 69.5471 51.2146 71.4856 51.2146H105.876C107.814 51.2146 109.386 49.6431 109.386 47.7046V47.6946C109.386 45.756 107.814 44.1846 105.876 44.1846Z" fill="white"/>
<path d="M117.995 63.1543H59.3655C57.4269 63.1543 55.8555 64.7258 55.8555 66.6643V66.6743C55.8555 68.6128 57.4269 70.1843 59.3655 70.1843H117.995C119.934 70.1843 121.505 68.6128 121.505 66.6743V66.6643C121.505 64.7258 119.934 63.1543 117.995 63.1543Z" fill="white"/>
<path d="M117.995 82.125H59.3655C57.4269 82.125 55.8555 83.6965 55.8555 85.635V85.645C55.8555 87.5835 57.4269 89.155 59.3655 89.155H117.995C119.934 89.155 121.505 87.5835 121.505 85.645V85.635C121.505 83.6965 119.934 82.125 117.995 82.125Z" fill="white"/>
<path d="M117.995 101.095H59.3655C57.4269 101.095 55.8555 102.666 55.8555 104.605V104.615C55.8555 106.553 57.4269 108.125 59.3655 108.125H117.995C119.934 108.125 121.505 106.553 121.505 104.615V104.605C121.505 102.666 119.934 101.095 117.995 101.095Z" fill="white"/>
<path d="M117.985 120.055H97.8352C95.8967 120.055 94.3252 121.626 94.3252 123.565V123.575C94.3252 125.513 95.8967 127.085 97.8352 127.085H117.985C119.924 127.085 121.495 125.513 121.495 123.575V123.565C121.495 121.626 119.924 120.055 117.985 120.055Z" fill="white"/>
<path d="M187.155 184.349C183.719 187.785 178.133 187.785 174.696 184.349L129.286 138.938L141.738 126.486L187.148 171.896C190.585 175.333 190.585 180.919 187.148 184.356L187.155 184.349Z" fill="#0085FF"/>
<path d="M149.829 83.777C165.159 99.107 167.039 122.797 155.439 140.177C153.829 142.597 151.959 144.877 149.829 147.017C147.699 149.147 145.399 151.027 142.989 152.637C125.609 164.237 101.929 162.357 86.5887 147.027C84.6787 145.117 82.9887 143.077 81.4987 140.947C78.2287 136.267 75.9587 131.097 74.6987 125.727C71.2487 111.147 75.2087 95.157 86.5887 83.777C97.9687 72.397 113.959 68.427 128.539 71.877C133.899 73.137 139.069 75.407 143.749 78.687C145.889 80.177 147.929 81.877 149.829 83.777Z" fill="#AFCAFF"/>
<g filter="url(#filter1_f_878_1151)">
<path d="M129.289 138.927L142.989 152.617C145.409 151.017 147.699 149.137 149.829 147.007C151.959 144.877 153.829 142.577 155.439 140.167L141.749 126.467L129.289 138.927Z" fill="#49A6F2"/>
</g>
<g filter="url(#filter2_f_878_1151)" style="mix-blend-mode:multiply">
<path d="M118.209 148.007C134.684 148.007 148.039 134.651 148.039 118.177C148.039 101.702 134.684 88.3467 118.209 88.3467C101.734 88.3467 88.3789 101.702 88.3789 118.177C88.3789 134.651 101.734 148.007 118.209 148.007Z" fill="#C5C5FD"/>
</g>
<path d="M118.209 145.227C134.684 145.227 148.039 131.872 148.039 115.397C148.039 98.9227 134.684 85.5674 118.209 85.5674C101.734 85.5674 88.3789 98.9227 88.3789 115.397C88.3789 131.872 101.734 145.227 118.209 145.227Z" fill="white"/>
<defs>
<filter id="filter0_f_878_1151" x="35.4453" y="21.7148" width="87.1289" height="126.7" filterUnits="userSpaceOnUse" color-interpolation-filters="sRGB">
<feFlood flood-opacity="0" result="BackgroundImageFix"/>
<feBlend mode="normal" in="SourceGraphic" in2="BackgroundImageFix" result="shape"/>
<feGaussianBlur stdDeviation="4" result="effect1_foregroundBlur_878_1151"/>
</filter>
<filter id="filter1_f_878_1151" x="121.289" y="118.467" width="42.1504" height="42.1504" filterUnits="userSpaceOnUse" color-interpolation-filters="sRGB">
<feFlood flood-opacity="0" result="BackgroundImageFix"/>
<feBlend mode="normal" in="SourceGraphic" in2="BackgroundImageFix" result="shape"/>
<feGaussianBlur stdDeviation="4" result="effect1_foregroundBlur_878_1151"/>
</filter>
<filter id="filter2_f_878_1151" x="82.3789" y="82.3467" width="71.6602" height="71.6602" filterUnits="userSpaceOnUse" color-interpolation-filters="sRGB">
<feFlood flood-opacity="0" result="BackgroundImageFix"/>
<feBlend mode="normal" in="SourceGraphic" in2="BackgroundImageFix" result="shape"/>
<feGaussianBlur stdDeviation="3" result="effect1_foregroundBlur_878_1151"/>
</filter>
</defs>
</svg>
