<svg width="200" height="200" viewBox="0 0 200 200" fill="none" xmlns="http://www.w3.org/2000/svg">
<path d="M152.98 59.415H47.0197C36.2226 59.415 27.4697 68.1679 27.4697 78.965V149.465C27.4697 160.262 36.2226 169.015 47.0197 169.015H152.98C163.777 169.015 172.53 160.262 172.53 149.465V78.965C172.53 68.1679 163.777 59.415 152.98 59.415Z" fill="#CCEEFE"/>
<g filter="url(#filter0_f_878_1104)" style="mix-blend-mode:multiply">
<path d="M63.1502 118.256C68.0711 118.256 72.0602 114.266 72.0602 109.346C72.0602 104.425 68.0711 100.436 63.1502 100.436C58.2294 100.436 54.2402 104.425 54.2402 109.346C54.2402 114.266 58.2294 118.256 63.1502 118.256Z" fill="#B4E6FE"/>
<path d="M102.21 118.256C107.131 118.256 111.12 114.266 111.12 109.346C111.12 104.425 107.131 100.436 102.21 100.436C97.2894 100.436 93.3002 104.425 93.3002 109.346C93.3002 114.266 97.2894 118.256 102.21 118.256Z" fill="#B4E6FE"/>
<path d="M141.27 118.256C146.191 118.256 150.18 114.266 150.18 109.346C150.18 104.425 146.191 100.436 141.27 100.436C136.349 100.436 132.36 104.425 132.36 109.346C132.36 114.266 136.349 118.256 141.27 118.256Z" fill="#B4E6FE"/>
<path d="M63.1502 148.886C68.0711 148.886 72.0602 144.896 72.0602 139.976C72.0602 135.055 68.0711 131.066 63.1502 131.066C58.2294 131.066 54.2402 135.055 54.2402 139.976C54.2402 144.896 58.2294 148.886 63.1502 148.886Z" fill="#B4E6FE"/>
<path d="M102.21 148.886C107.131 148.886 111.12 144.896 111.12 139.976C111.12 135.055 107.131 131.066 102.21 131.066C97.2894 131.066 93.3002 135.055 93.3002 139.976C93.3002 144.896 97.2894 148.886 102.21 148.886Z" fill="#B4E6FE"/>
<path d="M141.27 148.886C146.191 148.886 150.18 144.896 150.18 139.976C150.18 135.055 146.191 131.066 141.27 131.066C136.349 131.066 132.36 135.055 132.36 139.976C132.36 144.896 136.349 148.886 141.27 148.886Z" fill="#B4E6FE"/>
</g>
<path d="M60.9403 116.046C65.8611 116.046 69.8503 112.056 69.8503 107.136C69.8503 102.215 65.8611 98.2256 60.9403 98.2256C56.0194 98.2256 52.0303 102.215 52.0303 107.136C52.0303 112.056 56.0194 116.046 60.9403 116.046Z" fill="white"/>
<path d="M99.9998 116.046C104.921 116.046 108.91 112.056 108.91 107.136C108.91 102.215 104.921 98.2256 99.9998 98.2256C95.079 98.2256 91.0898 102.215 91.0898 107.136C91.0898 112.056 95.079 116.046 99.9998 116.046Z" fill="white"/>
<path d="M139.06 116.046C143.981 116.046 147.97 112.056 147.97 107.136C147.97 102.215 143.981 98.2256 139.06 98.2256C134.14 98.2256 130.15 102.215 130.15 107.136C130.15 112.056 134.14 116.046 139.06 116.046Z" fill="white"/>
<path d="M60.9403 146.675C65.8611 146.675 69.8503 142.686 69.8503 137.765C69.8503 132.845 65.8611 128.855 60.9403 128.855C56.0194 128.855 52.0303 132.845 52.0303 137.765C52.0303 142.686 56.0194 146.675 60.9403 146.675Z" fill="white"/>
<path d="M99.9998 146.675C104.921 146.675 108.91 142.686 108.91 137.765C108.91 132.845 104.921 128.855 99.9998 128.855C95.079 128.855 91.0898 132.845 91.0898 137.765C91.0898 142.686 95.079 146.675 99.9998 146.675Z" fill="white"/>
<path d="M139.06 146.675C143.981 146.675 147.97 142.686 147.97 137.765C147.97 132.845 143.981 128.855 139.06 128.855C134.14 128.855 130.15 132.845 130.15 137.765C130.15 142.686 134.14 146.675 139.06 146.675Z" fill="white"/>
<path d="M165.54 50.7656H34.4599C27.5343 50.7656 21.9199 56.38 21.9199 63.3056V69.3256C21.9199 76.2513 27.5343 81.8656 34.4599 81.8656H165.54C172.466 81.8656 178.08 76.2513 178.08 69.3256V63.3056C178.08 56.38 172.466 50.7656 165.54 50.7656Z" fill="#51C2FF"/>
<path d="M70.15 40.2054V61.3154C70.15 66.4154 66.02 70.5454 60.93 70.5454C55.84 70.5454 51.71 66.4154 51.71 61.3154V40.2054C51.71 35.1154 55.84 30.9854 60.93 30.9854C63.47 30.9854 65.78 32.0154 67.45 33.6854C69.12 35.3554 70.15 37.6554 70.15 40.2054Z" fill="#818CFF"/>
<path d="M148.28 40.2054V61.3154C148.28 66.4154 144.15 70.5454 139.06 70.5454C133.97 70.5454 129.84 66.4154 129.84 61.3154V40.2054C129.84 37.6654 130.87 35.3554 132.54 33.6854C134.21 32.0154 136.51 30.9854 139.06 30.9854C144.15 30.9854 148.28 35.1154 148.28 40.2054Z" fill="#818CFF"/>
<g filter="url(#filter1_f_878_1104)" style="mix-blend-mode:multiply">
<path d="M51.72 50.7656H70.15V61.3156C70.15 66.4156 66.02 70.5456 60.93 70.5456C55.84 70.5456 51.71 66.4156 51.71 61.3156V50.7656H51.72Z" fill="#818BFF"/>
</g>
<g filter="url(#filter2_f_878_1104)" style="mix-blend-mode:multiply">
<path d="M148.28 50.7656V61.3156C148.28 66.4156 144.15 70.5456 139.06 70.5456C133.97 70.5456 129.84 66.4156 129.84 61.3156V50.7656H148.27H148.28Z" fill="#818BFF"/>
</g>
<defs>
<filter id="filter0_f_878_1104" x="48.2402" y="94.4355" width="107.94" height="60.4502" filterUnits="userSpaceOnUse" color-interpolation-filters="sRGB">
<feFlood flood-opacity="0" result="BackgroundImageFix"/>
<feBlend mode="normal" in="SourceGraphic" in2="BackgroundImageFix" result="shape"/>
<feGaussianBlur stdDeviation="3" result="effect1_foregroundBlur_878_1104"/>
</filter>
<filter id="filter1_f_878_1104" x="45.71" y="44.7656" width="30.4404" height="31.7803" filterUnits="userSpaceOnUse" color-interpolation-filters="sRGB">
<feFlood flood-opacity="0" result="BackgroundImageFix"/>
<feBlend mode="normal" in="SourceGraphic" in2="BackgroundImageFix" result="shape"/>
<feGaussianBlur stdDeviation="3" result="effect1_foregroundBlur_878_1104"/>
</filter>
<filter id="filter2_f_878_1104" x="123.84" y="44.7656" width="30.4404" height="31.7803" filterUnits="userSpaceOnUse" color-interpolation-filters="sRGB">
<feFlood flood-opacity="0" result="BackgroundImageFix"/>
<feBlend mode="normal" in="SourceGraphic" in2="BackgroundImageFix" result="shape"/>
<feGaussianBlur stdDeviation="3" result="effect1_foregroundBlur_878_1104"/>
</filter>
</defs>
</svg>
