<svg preserveAspectRatio="none" width="100%" height="100%" overflow="visible" style="display: block;" viewBox="0 0 17.0526 18" fill="none" xmlns="http://www.w3.org/2000/svg">
<g id="image" clip-path="url(#clip0_0_4)">
<path id="Vector" d="M0 4.73684C0 2.12075 2.12076 0 4.73684 0H12.3158C14.9319 0 17.0526 2.12076 17.0526 4.73684V12.6947C17.0526 15.3108 14.9319 17.4316 12.3158 17.4316H4.73684C2.12076 17.4316 0 15.3108 0 12.6947V4.73684Z" fill="var(--fill-0, #F5EAFF)"/>
<path id="Vector_2" d="M15.1579 8.71579C15.1579 8.71579 12.1883 12.6947 8.52632 12.6947C4.86436 12.6947 1.89474 8.71579 1.89474 8.71579C1.89474 8.71579 4.86436 4.73684 8.52632 4.73684C12.1883 4.73684 15.1579 8.71579 15.1579 8.71579Z" stroke="url(#paint0_linear_0_4)" stroke-width="0.947368" stroke-miterlimit="10" stroke-linecap="round" stroke-linejoin="round"/>
<path id="Vector_3" d="M9.93297 10.1225C9.5599 10.4957 9.05387 10.7053 8.52622 10.7053C7.99858 10.7053 7.49255 10.4957 7.11945 10.1225C6.74635 9.74946 6.53675 9.24344 6.53675 8.7158C6.53675 8.18815 6.74635 7.68212 7.11945 7.30902C7.49255 6.93593 7.99858 6.72633 8.52622 6.72633C9.05387 6.72633 9.5599 6.93593 9.93297 7.30902C10.3061 7.68212 10.5157 8.18815 10.5157 8.7158C10.5157 9.24344 10.3061 9.74946 9.93297 10.1225Z" stroke="url(#paint1_linear_0_4)" stroke-width="0.947368" stroke-miterlimit="10" stroke-linecap="round" stroke-linejoin="round"/>
</g>
<defs>
<linearGradient id="paint0_linear_0_4" x1="8.52632" y1="4.73684" x2="8.52632" y2="12.6947" gradientUnits="userSpaceOnUse">
<stop stop-color="#3082FF"/>
<stop offset="1" stop-color="#9E17E1"/>
</linearGradient>
<linearGradient id="paint1_linear_0_4" x1="8.52622" y1="6.72633" x2="8.52622" y2="10.7053" gradientUnits="userSpaceOnUse">
<stop stop-color="#3082FF"/>
<stop offset="1" stop-color="#9E17E1"/>
</linearGradient>
<clipPath id="clip0_0_4">
<rect width="17.0526" height="18" fill="white"/>
</clipPath>
</defs>
</svg>
