<svg xmlns="http://www.w3.org/2000/svg" fill="none" viewBox="0 0 29 30" class="h-[30px] w-[28px]"><path fill="url(#a)" d="M18.758 13.737V30l-6.442-4.013z"></path><path fill="url(#b)" d="m18.705 13.895 9.716 13.307-9.716 2.745z"></path><mask id="d" width="19" height="28" x="0" y="0" maskUnits="userSpaceOnUse" style="mask-type:alpha;"><path fill="url(#c)" d="m14.227 0 4.29 2.453L4.29 27.337 0 24.885z"></path></mask><g mask="url(#d)"><path fill="#E35151" d="m-6.975-1.356 5.605-9.437L31.22 8.565l-5.606 9.437z"></path><path fill="#F1971A" d="m-11.16 5.69 4.186-7.047 32.59 19.358-4.187 7.047z"></path><path fill="#E6E20E" d="m-13.851 10.22 2.69-4.53 32.59 19.357-2.691 4.53z"></path><path fill="#12CE28" d="m-15.57 13.113 1.719-2.894 32.589 19.358-1.72 2.894z"></path><path fill="#485CEC" d="m-16.616 14.875 1.046-1.762 32.59 19.358-1.047 1.762z"></path></g><g opacity=".64"><path fill="url(#e)" d="m18.536 2.481-.08 8.339-8.05 14.98-6.081 1.536z"></path><path fill="#E35151" d="m13.737 10.895 4.816-8.448-.08 8.369-1.105 2.052z"></path><path fill="#F1971A" d="m9.632 18.079 4.105-7.184 3.631 1.973-3.552 6.632z"></path><path fill="#E6E20E" d="m7.026 22.579 2.606-4.5 4.184 1.42-2.053 3.79z"></path><path fill="#12CE28" d="m5.368 25.5 1.658-2.921 4.737.71-.79 1.421z"></path><path fill="#485CEC" d="M4.342 27.316 5.368 25.5l5.606-.79-.553 1.105z"></path></g><g fill-opacity=".5" opacity=".64"><path fill="url(#f)" d="m18.536 2.481-.08 8.339-8.05 14.98-6.081 1.536z"></path><path fill="url(#g)" d="m13.737 10.895 4.816-8.448-.08 8.369-1.105 2.052z"></path><path fill="url(#h)" d="m9.632 18.079 4.105-7.184 3.631 1.973-3.552 6.632z"></path><path fill="url(#i)" d="m7.026 22.579 2.606-4.5 4.184 1.42-2.053 3.79z"></path><path fill="url(#j)" d="m5.368 25.5 1.658-2.921 4.737.71-.79 1.421z"></path><path fill="url(#k)" d="M4.342 27.316 5.368 25.5l5.606-.79-.553 1.105z"></path></g><defs><linearGradient id="a" x1="14.29" x2="14.29" y1="0" y2="30" gradientUnits="userSpaceOnUse"><stop stop-color="red"></stop><stop offset="1" stop-color="#9A4AFF"></stop></linearGradient><linearGradient id="b" x1="14.29" x2="14.29" y1="0" y2="30" gradientUnits="userSpaceOnUse"><stop stop-color="red"></stop><stop offset="1" stop-color="#9A4AFF"></stop></linearGradient><linearGradient id="c" x1="14.29" x2="14.29" y1="0" y2="30" gradientUnits="userSpaceOnUse"><stop stop-color="red"></stop><stop offset="1" stop-color="#9A4AFF"></stop></linearGradient><linearGradient id="e" x1="14.29" x2="14.29" y1="0" y2="30" gradientUnits="userSpaceOnUse"><stop stop-color="red"></stop><stop offset="1" stop-color="#9A4AFF"></stop></linearGradient><linearGradient id="f" x1="9.395" x2="13.737" y1="18.71" y2="21.395" gradientUnits="userSpaceOnUse"><stop stop-color="#CE247C"></stop><stop offset="1" stop-color="#9B48FA"></stop></linearGradient><linearGradient id="g" x1="9.395" x2="13.737" y1="18.71" y2="21.395" gradientUnits="userSpaceOnUse"><stop stop-color="#CE247C"></stop><stop offset="1" stop-color="#9B48FA"></stop></linearGradient><linearGradient id="h" x1="9.395" x2="13.737" y1="18.71" y2="21.395" gradientUnits="userSpaceOnUse"><stop stop-color="#CE247C"></stop><stop offset="1" stop-color="#9B48FA"></stop></linearGradient><linearGradient id="i" x1="9.395" x2="13.737" y1="18.71" y2="21.395" gradientUnits="userSpaceOnUse"><stop stop-color="#CE247C"></stop><stop offset="1" stop-color="#9B48FA"></stop></linearGradient><linearGradient id="j" x1="9.395" x2="13.737" y1="18.71" y2="21.395" gradientUnits="userSpaceOnUse"><stop stop-color="#CE247C"></stop><stop offset="1" stop-color="#9B48FA"></stop></linearGradient><linearGradient id="k" x1="9.395" x2="13.737" y1="18.71" y2="21.395" gradientUnits="userSpaceOnUse"><stop stop-color="#CE247C"></stop><stop offset="1" stop-color="#9B48FA"></stop></linearGradient></defs></svg>