<svg preserveAspectRatio="none" width="100%" height="100%" overflow="visible" style="display: block;" viewBox="0 0 11.6667 9.52778" fill="none" xmlns="http://www.w3.org/2000/svg">
<g id="Group" opacity="0.25">
<path id="Vector" d="M11.2778 4.96806C11.2778 4.96806 8.83976 8.23472 5.83333 8.23472C2.82691 8.23472 0.388889 4.96806 0.388889 4.96806C0.388889 4.96806 2.82691 1.70139 5.83333 1.70139C8.83976 1.70139 11.2778 4.96806 11.2778 4.96806Z" stroke="var(--stroke-0, black)" stroke-width="0.777778" stroke-miterlimit="10" stroke-linecap="round" stroke-linejoin="round"/>
<path id="Vector_2" d="M6.98818 6.12298C6.68189 6.42927 6.26645 6.60139 5.83326 6.60139C5.40007 6.60139 4.98462 6.42927 4.67832 6.12298C4.37201 5.81669 4.19992 5.40124 4.19992 4.96806C4.19992 4.53486 4.37201 4.11942 4.67832 3.81311C4.98462 3.50681 5.40007 3.33472 5.83326 3.33472C6.26645 3.33472 6.68189 3.50681 6.98818 3.81311C7.29454 4.11942 7.46659 4.53486 7.46659 4.96806C7.46659 5.40124 7.29454 5.81669 6.98818 6.12298Z" stroke="var(--stroke-0, black)" stroke-width="0.777778" stroke-miterlimit="10" stroke-linecap="round" stroke-linejoin="round"/>
<path id="Vector_3" d="M10.1597 0.388889L1.40972 9.13889" stroke="var(--stroke-0, #323232)" stroke-width="0.777778" stroke-linecap="round" stroke-linejoin="round"/>
</g>
</svg>
