<svg width="48" height="48" viewBox="0 0 48 48" fill="none" xmlns="http://www.w3.org/2000/svg">
<path d="M11 3H33L44 14V42C44 42.7956 43.6839 43.5587 43.1213 44.1213C42.5587 44.6839 41.7956 45 41 45H11C10.2044 45 9.44129 44.6839 8.87868 44.1213C8.31607 43.5587 8 42.7956 8 42V6C8 5.20435 8.31607 4.44129 8.87868 3.87868C9.44129 3.31607 10.2044 3 11 3Z" fill="url(#paint0_linear_881_1617)"/>
<path d="M11 3H33L44 14V42C44 42.7956 43.6839 43.5587 43.1213 44.1213C42.5587 44.6839 41.7956 45 41 45H11C10.2044 45 9.44129 44.6839 8.87868 44.1213C8.31607 43.5587 8 42.7956 8 42V6C8 5.20435 8.31607 4.44129 8.87868 3.87868C9.44129 3.31607 10.2044 3 11 3Z" fill="url(#paint1_linear_881_1617)"/>
<path d="M33 3V11C33 11.7956 33.3161 12.5587 33.8787 13.1213C34.4413 13.6839 35.2044 14 36 14H44L33 3Z" fill="#86A9FF"/>
<path d="M10.4175 25.1367H11.7358V27.7734H14.4956V25.1367H15.814V31.5H14.4956V28.8589H11.7358V31.5H10.4175V25.1367ZM16.4995 25.1367H17.9365L19.0044 29.584H19.0615L20.2261 25.1367H21.4741L22.6431 29.5972H22.6958L23.7637 25.1367H25.2007L23.3857 31.5H22.0894L20.8765 27.2988H20.8281L19.6108 31.5H18.3188L16.4995 25.1367ZM25.8862 25.1367H28.3735C28.8481 25.1367 29.2568 25.2275 29.5996 25.4092C29.9453 25.5879 30.2075 25.8398 30.3862 26.165C30.5649 26.4902 30.6543 26.8638 30.6543 27.2856C30.6543 27.7104 30.562 28.084 30.3774 28.4062C30.1958 28.7256 29.9307 28.9761 29.582 29.1577C29.2363 29.3364 28.8232 29.4258 28.3428 29.4258H26.7432V28.3623H28.1362C28.3911 28.3623 28.605 28.3184 28.7778 28.2305C28.9536 28.1396 29.084 28.0137 29.1689 27.8525C29.2539 27.6914 29.2964 27.5024 29.2964 27.2856C29.2964 27.0688 29.2539 26.8813 29.1689 26.7231C29.084 26.562 28.9536 26.439 28.7778 26.354C28.605 26.2661 28.3896 26.2222 28.1318 26.2222H27.2046V31.5H25.8862V25.1367ZM34.0073 27.3252H34.0601L35.3608 25.1367H36.855L34.917 28.3184L36.8989 31.5H35.3784L34.0601 29.3115H34.0073L32.689 31.5H31.1729L33.168 28.3184L31.208 25.1367H32.7109L34.0073 27.3252Z" fill="white"/>
<defs>
<linearGradient id="paint0_linear_881_1617" x1="8" y1="5" x2="45.4996" y2="43.5409" gradientUnits="userSpaceOnUse">
<stop stop-color="#6CA5F9"/>
<stop offset="1" stop-color="#A463F4"/>
</linearGradient>
<linearGradient id="paint1_linear_881_1617" x1="26" y1="3" x2="26" y2="45" gradientUnits="userSpaceOnUse">
<stop stop-color="#2D156F" stop-opacity="0"/>
<stop offset="0.86538" stop-color="#2D156F" stop-opacity="0.2"/>
</linearGradient>
</defs>
</svg>
